<?xml version="1.0" encoding="utf-8"?>
<svg width="2701px" height="901px" viewBox="0 0 2701 901" version="1.1" xmlns:xlink="http://www.w3.org/1999/xlink" xmlns="http://www.w3.org/2000/svg">
  <defs>
    <path d="M650 0C677.618 0 700 22.382 700 50L700 650C700 677.618 677.618 700 650 700L50 700C22.382 700 0 677.618 0 650L0 50C0 22.382 22.382 0 50 0L650 0Z" id="path_1" />
    <clipPath id="clip_1">
      <use xlink:href="#path_1" clip-rule="evenodd" fill-rule="evenodd" />
    </clipPath>
  </defs>
  <g id="Group">
    <path d="M0 0L2701 0L2701 901L0 901L0 0Z" id="Rectangle" fill="#FFFFFF" fill-opacity="0" fill-rule="evenodd" stroke="none" />
    <g id="BlancoHub-" transform="translate(919 186)">
      <g transform="translate(0, 84.517044)" id="BSales" fill="#181818">
        <path d="M22.1236 339.063L22.1236 84.517L124.041 84.517Q166.175 84.517 187.367 102.85Q208.558 121.183 208.558 149.769Q208.558 172.266 195.508 186.124Q182.457 199.982 162.571 204.457L162.571 206.942Q177.113 207.564 189.853 215.146Q202.592 222.727 210.547 236.275Q218.501 249.822 218.501 268.714Q218.501 288.974 208.496 304.883Q198.491 320.792 178.977 329.927C165.968 336.017 149.935 339.063 130.877 339.063L22.1236 339.063ZM75.9411 295.064L119.815 295.064Q142.436 295.064 152.69 286.364Q162.944 277.663 162.944 263.37Q162.944 247.585 151.696 237.518Q140.447 227.45 121.058 227.45L75.9411 227.45L75.9411 295.064ZM75.9411 191.033L115.838 191.033Q132.369 191.033 143.306 182.395Q154.244 173.757 154.244 158.718Q154.244 144.922 144.487 136.47Q134.73 128.018 116.832 128.018L75.9411 128.018L75.9411 191.033ZM391.513 157.724Q390.021 142.685 378.649 134.357Q367.276 126.03 348.011 126.03Q328.249 126.03 317.685 134.109Q307.12 142.188 307.12 154.492Q306.871 168.164 318.865 175.186Q330.859 182.209 347.39 186.062L370.259 191.531Q392.383 196.502 409.597 205.948Q426.811 215.394 436.692 230.247Q446.573 245.099 446.573 266.353Q446.449 301.278 420.41 321.973Q394.371 342.667 347.763 342.667Q301.403 342.667 273.81 321.538Q246.218 300.408 245.224 259.144L297.301 259.144Q298.668 278.285 312.402 287.917Q326.136 297.55 347.141 297.55Q367.649 297.55 379.892 288.849Q392.134 280.149 392.259 266.229Q392.134 253.303 380.948 246.342Q369.762 239.382 349.006 234.411L321.289 227.45Q289.098 219.744 270.455 202.965Q251.811 186.186 251.935 158.097Q251.811 134.979 264.302 117.64Q276.793 100.302 298.668 90.6694Q320.543 81.037 348.384 81.0369Q376.722 81.037 397.914 90.7315Q419.105 100.426 430.913 117.702Q442.72 134.979 443.093 157.724L391.513 157.724ZM536.062 342.667Q508.718 342.667 490.696 328.374Q472.674 314.08 472.674 285.742Q472.674 264.364 482.741 252.184Q492.809 240.004 509.153 234.348Q525.497 228.693 544.389 226.953Q569.247 224.467 579.936 221.733Q590.625 218.999 590.625 209.801L590.625 209.055Q590.625 197.248 583.23 190.785Q575.835 184.322 562.287 184.322Q547.994 184.322 539.542 190.536Q531.09 196.751 528.356 206.321L479.386 202.344Q484.854 176.243 506.543 160.955Q528.232 145.668 562.536 145.668Q583.789 145.668 602.308 152.379Q620.827 159.091 632.2 173.322Q643.572 187.553 643.572 210.298L643.572 339.063L593.359 339.063L593.359 312.589L591.868 312.589Q584.908 325.888 571.049 334.277Q557.191 342.667 536.062 342.667ZM551.225 306.126Q568.626 306.126 579.812 295.996Q590.998 285.866 590.998 270.827L590.998 250.568Q587.891 252.681 581.365 254.297Q574.84 255.913 567.445 257.093Q560.05 258.274 554.208 259.144Q540.288 261.133 531.774 266.974Q523.26 272.816 523.26 284.002Q523.26 294.94 531.152 300.533Q539.045 306.126 551.225 306.126ZM737.66 84.517L737.66 339.063L684.712 339.063L684.712 84.517L737.66 84.517ZM866.921 342.791Q837.589 342.791 816.335 330.797Q795.082 318.803 783.647 296.742Q772.212 274.68 772.212 244.478Q772.212 215.021 783.647 192.773Q795.082 170.526 815.9 158.097Q836.719 145.668 864.808 145.668Q890.039 145.668 910.36 156.357Q930.682 167.045 942.614 188.61Q954.545 210.174 954.545 242.614L954.545 257.156L824.538 257.156L824.538 257.28Q824.538 278.658 836.222 290.962Q847.905 303.267 867.791 303.267Q881.09 303.267 890.785 297.674Q900.479 292.081 904.457 281.143L953.427 284.375Q947.834 310.973 925.089 326.882Q902.344 342.791 866.921 342.791ZM824.538 224.343L904.705 224.343Q904.581 207.315 893.768 196.254Q882.955 185.192 865.678 185.192Q848.029 185.192 836.719 196.626Q825.408 208.061 824.538 224.343ZM1147.94 202.592L1099.47 205.575Q1097.48 196.378 1089.4 189.79Q1081.32 183.203 1067.52 183.203Q1055.22 183.203 1046.71 188.361Q1038.19 193.519 1038.32 202.095Q1038.19 208.931 1043.72 213.654Q1049.25 218.377 1062.55 221.236L1097.11 228.196Q1152.17 239.506 1152.29 279.901Q1152.29 298.668 1141.29 312.837Q1130.29 327.006 1111.15 334.899Q1092.01 342.791 1067.28 342.791Q1029.37 342.791 1006.87 326.944Q984.375 311.097 980.646 283.754L1032.72 281.019Q1035.21 292.702 1044.22 298.668Q1053.23 304.634 1067.4 304.634Q1081.32 304.634 1089.83 299.165Q1098.35 293.697 1098.47 285.245Q1098.1 271.076 1073.99 266.229L1040.93 259.641Q985.494 248.58 985.742 205.078Q985.618 177.486 1007.8 161.577Q1029.99 145.668 1066.65 145.668Q1102.82 145.668 1123.64 160.955Q1144.46 176.243 1147.94 202.592Z" />
      </g>
    </g>
    <g id="Creative,-Clean-and-Fast." transform="translate(927 512)">
      <g transform="translate(0, 36.221592)" id="ECommerce-made-easy" fill="#181818">
        <path d="M13.2102 145.313L13.2102 36.2216L79.0483 36.2216L79.0483 47.9403L26.4205 47.9403L26.4205 84.8011L75.6392 84.8011L75.6392 96.5199L26.4205 96.5199L26.4205 133.594L79.9006 133.594L79.9006 145.313L13.2102 145.313ZM190.696 70.3125L177.486 70.3125Q175.888 62.7486 171.36 57.5817Q166.832 52.4148 160.44 49.7514Q154.048 47.0881 146.804 47.0881Q136.896 47.0881 128.88 52.0952Q120.863 57.1023 116.149 66.8501Q111.435 76.598 111.435 90.767Q111.435 104.936 116.149 114.684Q120.863 124.432 128.88 129.439Q136.896 134.446 146.804 134.446Q154.048 134.446 160.44 131.783Q166.832 129.119 171.36 123.952Q175.888 118.786 177.486 111.222L190.696 111.222Q188.672 122.408 182.44 130.371Q176.207 138.335 166.992 142.569Q157.777 146.804 146.804 146.804Q132.848 146.804 121.982 139.986Q111.115 133.168 104.883 120.597Q98.6506 108.026 98.6506 90.767Q98.6506 73.5085 104.883 60.9375Q111.115 48.3665 121.982 41.5483Q132.848 34.7301 146.804 34.7301Q157.777 34.7301 166.992 38.9648Q176.207 43.1996 182.44 51.163Q188.672 59.1264 190.696 70.3125ZM243.537 147.017Q232.457 147.017 224.121 141.744Q215.785 136.47 211.124 126.989Q206.463 117.507 206.463 104.83Q206.463 92.0455 211.124 82.5107Q215.785 72.9759 224.121 67.7024Q232.457 62.429 243.537 62.429Q254.616 62.429 262.953 67.7024Q271.289 72.9759 275.95 82.5107Q280.611 92.0455 280.611 104.83Q280.611 117.507 275.95 126.989Q271.289 136.47 262.953 141.744Q254.616 147.017 243.537 147.017ZM243.537 135.724Q251.953 135.724 257.386 131.41Q262.82 127.095 265.43 120.064Q268.04 113.033 268.04 104.83Q268.04 96.6264 265.43 89.5419Q262.82 82.4574 257.386 78.0895Q251.953 73.7216 243.537 73.7216Q235.121 73.7216 229.688 78.0895Q224.254 82.4574 221.644 89.5419Q219.034 96.6264 219.034 104.83Q219.034 113.033 221.644 120.064Q224.254 127.095 229.688 131.41Q235.121 135.724 243.537 135.724ZM299.787 145.313L299.787 63.4943L311.932 63.4943L311.932 76.2784L312.997 76.2784Q315.554 69.7266 321.254 66.0778Q326.953 62.429 334.943 62.429Q343.04 62.429 348.446 66.0778Q353.853 69.7266 356.889 76.2784L357.741 76.2784Q360.884 69.9396 367.17 66.1843Q373.455 62.429 382.244 62.429Q393.217 62.429 400.195 69.2738Q407.173 76.1186 407.173 90.554L407.173 145.313L394.602 145.313L394.602 90.554Q394.602 81.4986 389.648 77.6101Q384.695 73.7216 377.983 73.7216Q369.354 73.7216 364.613 78.9151Q359.872 84.1087 359.872 92.0455L359.872 145.313L347.088 145.313L347.088 89.2756Q347.088 82.2976 342.56 78.0096Q338.033 73.7216 330.895 73.7216Q325.994 73.7216 321.76 76.3317Q317.525 78.9418 314.941 83.5494Q312.358 88.157 312.358 94.1761L312.358 145.313L299.787 145.313ZM430.185 145.313L430.185 63.4943L442.33 63.4943L442.33 76.2784L443.395 76.2784Q445.952 69.7266 451.651 66.0778Q457.351 62.429 465.341 62.429Q473.438 62.429 478.844 66.0778Q484.251 69.7266 487.287 76.2784L488.139 76.2784Q491.282 69.9396 497.567 66.1843Q503.853 62.429 512.642 62.429Q523.615 62.429 530.593 69.2738Q537.571 76.1186 537.571 90.554L537.571 145.313L525 145.313L525 90.554Q525 81.4986 520.046 77.6101Q515.092 73.7216 508.381 73.7216Q499.751 73.7216 495.011 78.9151Q490.27 84.1087 490.27 92.0455L490.27 145.313L477.486 145.313L477.486 89.2756Q477.486 82.2976 472.958 78.0096Q468.43 73.7216 461.293 73.7216Q456.392 73.7216 452.157 76.3317Q447.923 78.9418 445.339 83.5494Q442.756 88.157 442.756 94.1761L442.756 145.313L430.185 145.313ZM594.886 147.017Q583.061 147.017 574.512 141.77Q565.962 136.523 561.355 127.069Q556.747 117.614 556.747 105.043Q556.747 92.4716 561.355 82.8569Q565.962 73.2422 574.245 67.8356Q582.528 62.429 593.608 62.429Q600 62.429 606.232 64.5597Q612.464 66.6903 617.578 71.4577Q622.692 76.2251 625.728 84.0554Q628.764 91.8857 628.764 103.338L628.764 108.665L569.371 108.665Q569.798 121.768 576.802 128.746Q583.807 135.724 594.886 135.724Q602.291 135.724 607.617 132.528Q612.944 129.332 615.341 122.94L627.486 126.349Q624.609 135.618 615.98 141.317Q607.351 147.017 594.886 147.017ZM569.371 97.7983L615.98 97.7983Q615.98 87.4112 609.908 80.5664Q603.835 73.7216 593.608 73.7216Q586.417 73.7216 581.143 77.0774Q575.87 80.4332 572.834 85.9464Q569.798 91.4595 569.371 97.7983ZM647.94 145.313L647.94 63.4943L660.085 63.4943L660.085 75.8523L660.938 75.8523Q663.175 69.7798 669.034 65.9979Q674.893 62.2159 682.244 62.2159Q683.629 62.2159 685.707 62.2692Q687.784 62.3224 688.849 62.429L688.849 75.2131Q688.21 75.0533 685.946 74.707Q683.683 74.3608 681.179 74.3608Q672.23 74.3608 666.371 79.794Q660.511 85.2273 660.511 93.5369L660.511 145.313L647.94 145.313ZM734.446 147.017Q722.94 147.017 714.631 141.584Q706.321 136.151 701.847 126.616Q697.372 117.081 697.372 104.83Q697.372 92.3651 701.98 82.8036Q706.587 73.2422 714.87 67.8356Q723.153 62.429 734.233 62.429Q742.862 62.429 749.787 65.625Q756.712 68.821 761.133 74.5739Q765.554 80.3267 766.619 87.9972L754.048 87.9972Q752.61 82.4041 747.683 78.0629Q742.756 73.7216 734.446 73.7216Q723.42 73.7216 716.681 82.1111Q709.943 90.5007 709.943 104.403Q709.943 118.626 716.602 127.175Q723.26 135.724 734.446 135.724Q741.797 135.724 747.044 131.942Q752.291 128.161 754.048 121.449L766.619 121.449Q765.554 128.693 761.373 134.473Q757.191 140.252 750.346 143.635Q743.501 147.017 734.446 147.017ZM819.247 147.017Q807.422 147.017 798.872 141.77Q790.323 136.523 785.716 127.069Q781.108 117.614 781.108 105.043Q781.108 92.4716 785.716 82.8569Q790.323 73.2422 798.606 67.8356Q806.889 62.429 817.969 62.429Q824.361 62.429 830.593 64.5597Q836.825 66.6903 841.939 71.4577Q847.053 76.2251 850.089 84.0554Q853.125 91.8857 853.125 103.338L853.125 108.665L793.732 108.665Q794.158 121.768 801.163 128.746Q808.168 135.724 819.247 135.724Q826.651 135.724 831.978 132.528Q837.305 129.332 839.702 122.94L851.847 126.349Q848.97 135.618 840.341 141.317Q831.712 147.017 819.247 147.017ZM793.732 97.7983L840.341 97.7983Q840.341 87.4112 834.268 80.5664Q828.196 73.7216 817.969 73.7216Q810.778 73.7216 805.504 77.0774Q800.231 80.4332 797.195 85.9464Q794.158 91.4595 793.732 97.7983ZM914.489 145.313L914.489 63.4943L926.634 63.4943L926.634 76.2784L927.699 76.2784Q930.256 69.7266 935.955 66.0778Q941.655 62.429 949.645 62.429Q957.742 62.429 963.148 66.0778Q968.555 69.7266 971.591 76.2784L972.443 76.2784Q975.586 69.9396 981.871 66.1843Q988.157 62.429 996.946 62.429Q1007.92 62.429 1014.9 69.2738Q1021.88 76.1186 1021.88 90.554L1021.88 145.313L1009.3 145.313L1009.3 90.554Q1009.3 81.4986 1004.35 77.6101Q999.396 73.7216 992.685 73.7216Q984.055 73.7216 979.315 78.9151Q974.574 84.1087 974.574 92.0455L974.574 145.313L961.79 145.313L961.79 89.2756Q961.79 82.2976 957.262 78.0096Q952.734 73.7216 945.597 73.7216Q940.696 73.7216 936.461 76.3317Q932.227 78.9418 929.643 83.5494Q927.06 88.157 927.06 94.1761L927.06 145.313L914.489 145.313ZM1068.96 147.23Q1061.19 147.23 1054.85 144.274Q1048.51 141.317 1044.78 135.698Q1041.05 130.078 1041.05 122.088Q1041.05 115.057 1043.82 110.662Q1046.59 106.268 1051.23 103.764Q1055.86 101.261 1061.48 100.009Q1067.1 98.7571 1072.8 98.0114Q1080.26 97.0526 1084.92 96.5465Q1089.58 96.0405 1091.73 94.8153Q1093.89 93.5902 1093.89 90.554L1093.89 90.1278Q1093.89 82.2443 1089.6 77.8764Q1085.32 73.5085 1076.63 73.5085Q1067.63 73.5085 1062.52 77.4503Q1057.4 81.392 1055.33 85.8665L1043.39 81.6051Q1046.59 74.1477 1051.94 69.9663Q1057.3 65.7848 1063.66 64.1069Q1070.03 62.429 1076.21 62.429Q1080.15 62.429 1085.29 63.3611Q1090.43 64.2933 1095.25 67.1697Q1100.07 70.0462 1103.27 75.8523Q1106.46 81.6584 1106.46 91.4063L1106.46 145.313L1093.89 145.313L1093.89 134.233L1093.25 134.233Q1091.97 136.896 1088.99 139.933Q1086.01 142.969 1081.05 145.099Q1076.1 147.23 1068.96 147.23ZM1070.88 135.938Q1078.34 135.938 1083.48 133.008Q1088.62 130.078 1091.26 125.444Q1093.89 120.81 1093.89 115.696L1093.89 104.19Q1093.09 105.149 1090.4 105.922Q1087.71 106.694 1084.22 107.253Q1080.74 107.813 1077.46 108.212Q1074.18 108.612 1072.16 108.878Q1067.26 109.517 1063.02 110.929Q1058.79 112.34 1056.21 115.137Q1053.62 117.933 1053.62 122.727Q1053.62 129.279 1058.5 132.608Q1063.37 135.938 1070.88 135.938ZM1160.37 147.017Q1150.14 147.017 1142.31 141.824Q1134.48 136.63 1130.06 127.122Q1125.64 117.614 1125.64 104.616Q1125.64 91.7258 1130.06 82.2443Q1134.48 72.7628 1142.37 67.5959Q1150.25 62.429 1160.58 62.429Q1168.57 62.429 1173.23 65.0657Q1177.89 67.7024 1180.37 71.0316Q1182.85 74.3608 1184.23 76.4915L1185.3 76.4915L1185.3 36.2216L1197.87 36.2216L1197.87 145.313L1185.72 145.313L1185.72 132.741L1184.23 132.741Q1182.85 134.979 1180.29 138.361Q1177.73 141.744 1172.99 144.38Q1168.25 147.017 1160.37 147.017ZM1162.07 135.724Q1173.42 135.724 1179.47 127.015Q1185.51 118.306 1185.51 104.403Q1185.51 90.6605 1179.55 82.191Q1173.58 73.7216 1162.07 73.7216Q1154.08 73.7216 1148.78 77.7965Q1143.48 81.8714 1140.85 88.8228Q1138.21 95.7741 1138.21 104.403Q1138.21 113.139 1140.9 120.25Q1143.59 127.362 1148.89 131.543Q1154.19 135.724 1162.07 135.724ZM1256.89 147.017Q1245.06 147.017 1236.51 141.77Q1227.97 136.523 1223.36 127.069Q1218.75 117.614 1218.75 105.043Q1218.75 92.4716 1223.36 82.8569Q1227.97 73.2422 1236.25 67.8356Q1244.53 62.429 1255.61 62.429Q1262 62.429 1268.24 64.5597Q1274.47 66.6903 1279.58 71.4577Q1284.69 76.2251 1287.73 84.0554Q1290.77 91.8857 1290.77 103.338L1290.77 108.665L1231.37 108.665Q1231.8 121.768 1238.81 128.746Q1245.81 135.724 1256.89 135.724Q1264.29 135.724 1269.62 132.528Q1274.95 129.332 1277.34 122.94L1289.49 126.349Q1286.61 135.618 1277.98 141.317Q1269.35 147.017 1256.89 147.017ZM1231.37 97.7983L1277.98 97.7983Q1277.98 87.4112 1271.91 80.5664Q1265.84 73.7216 1255.61 73.7216Q1248.42 73.7216 1243.15 77.0774Q1237.87 80.4332 1234.84 85.9464Q1231.8 91.4595 1231.37 97.7983ZM1386.43 147.017Q1374.61 147.017 1366.06 141.77Q1357.51 136.523 1352.9 127.069Q1348.3 117.614 1348.3 105.043Q1348.3 92.4716 1352.9 82.8569Q1357.51 73.2422 1365.79 67.8356Q1374.08 62.429 1385.16 62.429Q1391.55 62.429 1397.78 64.5597Q1404.01 66.6903 1409.13 71.4577Q1414.24 76.2251 1417.28 84.0554Q1420.31 91.8857 1420.31 103.338L1420.31 108.665L1360.92 108.665Q1361.35 121.768 1368.35 128.746Q1375.36 135.724 1386.43 135.724Q1393.84 135.724 1399.17 132.528Q1404.49 129.332 1406.89 122.94L1419.03 126.349Q1416.16 135.618 1407.53 141.317Q1398.9 147.017 1386.43 147.017ZM1360.92 97.7983L1407.53 97.7983Q1407.53 87.4112 1401.46 80.5664Q1395.38 73.7216 1385.16 73.7216Q1377.97 73.7216 1372.69 77.0774Q1367.42 80.4332 1364.38 85.9464Q1361.35 91.4595 1360.92 97.7983ZM1463.57 147.23Q1455.79 147.23 1449.45 144.274Q1443.11 141.317 1439.38 135.698Q1435.65 130.078 1435.65 122.088Q1435.65 115.057 1438.42 110.662Q1441.19 106.268 1445.83 103.764Q1450.46 101.261 1456.08 100.009Q1461.7 98.7571 1467.4 98.0114Q1474.86 97.0526 1479.52 96.5465Q1484.18 96.0405 1486.34 94.8153Q1488.49 93.5902 1488.49 90.554L1488.49 90.1278Q1488.49 82.2443 1484.21 77.8764Q1479.92 73.5085 1471.24 73.5085Q1462.23 73.5085 1457.12 77.4503Q1452.01 81.392 1449.93 85.8665L1438 81.6051Q1441.19 74.1477 1446.55 69.9663Q1451.9 65.7848 1458.27 64.1069Q1464.63 62.429 1470.81 62.429Q1474.75 62.429 1479.89 63.3611Q1485.03 64.2933 1489.85 67.1697Q1494.67 70.0462 1497.87 75.8523Q1501.07 81.6584 1501.07 91.4063L1501.07 145.313L1488.49 145.313L1488.49 134.233L1487.86 134.233Q1486.58 136.896 1483.59 139.933Q1480.61 142.969 1475.66 145.099Q1470.7 147.23 1463.57 147.23ZM1465.48 135.938Q1472.94 135.938 1478.08 133.008Q1483.22 130.078 1485.86 125.444Q1488.49 120.81 1488.49 115.696L1488.49 104.19Q1487.7 105.149 1485.01 105.922Q1482.32 106.694 1478.83 107.253Q1475.34 107.813 1472.06 108.212Q1468.79 108.612 1466.76 108.878Q1461.86 109.517 1457.63 110.929Q1453.39 112.34 1450.81 115.137Q1448.22 117.933 1448.22 122.727Q1448.22 129.279 1453.1 132.608Q1457.97 135.938 1465.48 135.938ZM1582.03 81.8182L1570.74 85.0142Q1569.09 80.7528 1565.2 77.0241Q1561.31 73.2955 1553.05 73.2954Q1545.54 73.2955 1540.56 76.7312Q1535.58 80.1669 1535.58 85.4403Q1535.58 90.1278 1538.99 92.8445Q1542.4 95.5611 1549.64 97.3722L1561.79 100.355Q1583.52 105.682 1583.52 122.514Q1583.52 129.545 1579.5 135.085Q1575.48 140.625 1568.29 143.821Q1561.1 147.017 1551.56 147.017Q1539.04 147.017 1530.84 141.584Q1522.64 136.151 1520.45 125.71L1532.39 122.727Q1535.74 135.938 1551.35 135.938Q1560.14 135.938 1565.33 132.182Q1570.53 128.427 1570.53 123.153Q1570.53 114.471 1558.38 111.648L1544.74 108.452Q1533.51 105.788 1528.26 100.169Q1523.01 94.549 1523.01 86.0795Q1523.01 79.1548 1526.93 73.8281Q1530.84 68.5014 1537.63 65.4652Q1544.42 62.429 1553.05 62.429Q1565.2 62.429 1572.15 67.7557Q1579.1 73.0824 1582.03 81.8182ZM1610.58 175.994Q1607.39 175.994 1604.88 175.488Q1602.38 174.982 1601.42 174.503L1604.62 163.423Q1609.2 164.595 1612.71 164.276Q1616.23 163.956 1618.97 161.159Q1621.72 158.363 1624.01 152.131L1626.35 145.739L1596.09 63.4943L1609.73 63.4943L1632.32 128.693L1633.17 128.693L1655.75 63.4943L1669.39 63.4943L1634.66 157.244Q1627.68 175.994 1610.58 175.994Z" />
      </g>
    </g>
    <g id="Logo 1 Copy">
      <path d="M650 0C677.618 0 700 22.382 700 50L700 650C700 677.618 677.618 700 650 700L50 700C22.382 700 0 677.618 0 650L0 50C0 22.382 22.382 0 50 0L650 0Z" id="Logo-1-Copy" fill="#FFFFFF" stroke="none" transform="translate(156 100)" />
      <path d="M521.022 550L453.63 550L349.826 250L244.935 550L177 550L317.217 150L381.891 150L521.022 550Z" id="Path" fill="#181818" fill-rule="evenodd" stroke="none" clip-path="url(#clip_1)" transform="translate(156 100)" />
    </g>
  </g>
</svg>